<svg xmlns="http://www.w3.org/2000/svg" width="33.2" height="33.2" viewBox="0 0 33.2 33.2">
  <g id="Group_37" data-name="Group 37" transform="translate(-734.5 -101.4)">
    <path id="XMLID_22_" d="M767.7,118a16.6,16.6,0,1,1-16.6-16.6A16.623,16.623,0,0,1,767.7,118Z" fill="#f15c4c"/>
    <path id="Path_5" data-name="Path 5" d="M760.7,113.9a4.359,4.359,0,0,0-.8-2,3.1,3.1,0,0,0-2-.9c-2.7-.2-6.9-.2-6.9-.2h0s-4.1,0-6.9.2a2.8,2.8,0,0,0-2,.9,4.359,4.359,0,0,0-.8,2,32.721,32.721,0,0,0-.2,3.3v1.6a30.2,30.2,0,0,0,.2,3.3,4.359,4.359,0,0,0,.8,2,3.337,3.337,0,0,0,2.2.9c1.6.2,6.7.2,6.7.2s4.1,0,6.9-.2a2.8,2.8,0,0,0,2-.9,4.359,4.359,0,0,0,.8-2,32.721,32.721,0,0,0,.2-3.3v-1.6A32.721,32.721,0,0,0,760.7,113.9Zm-6.3,3.9-5.3,2.9V115l2.4,1.3Z" fill="#fff"/>
  </g>
</svg>
