<svg xmlns="http://www.w3.org/2000/svg" width="33.2" height="33.2" viewBox="0 0 33.2 33.2">
  <g id="Group_40" data-name="Group 40" transform="translate(-875.8 -101.4)">
    <path id="XMLID_7_" d="M909,118a16.6,16.6,0,1,1-16.6-16.6A16.623,16.623,0,0,1,909,118Z" fill="#48bded"/>
    <path id="XMLID_1_" d="M902.3,112.9a8.648,8.648,0,0,1-2.3.6,4.327,4.327,0,0,0,1.8-2.2,7.415,7.415,0,0,1-2.6,1,3.935,3.935,0,0,0-2.9-1.3,4.012,4.012,0,0,0-4,4,2.769,2.769,0,0,0,.1.9,11.686,11.686,0,0,1-8.3-4.1,4.552,4.552,0,0,0-.5,2,3.864,3.864,0,0,0,1.8,3.3,3.453,3.453,0,0,1-1.8-.5h0a3.194,3.194,0,0,0,.3,1.4,4.246,4.246,0,0,0,3,2.5,3.749,3.749,0,0,1-1.1.1,2.2,2.2,0,0,1-.8-.1,4.122,4.122,0,0,0,3.8,2.8,7.955,7.955,0,0,1-5,1.7,3.752,3.752,0,0,1-1-.1,11.838,11.838,0,0,0,6.2,1.8,11.242,11.242,0,0,0,11.2-8.9,9.862,9.862,0,0,0,.3-2.4v-.5A12.017,12.017,0,0,0,902.3,112.9Z" fill="#fff"/>
  </g>
</svg>
