<svg xmlns="http://www.w3.org/2000/svg" width="33.2" height="33.2" viewBox="0 0 33.2 33.2">
  <g id="Group_39" data-name="Group 39" transform="translate(-828.7 -101.4)">
    <path id="XMLID_10_" d="M861.9,118a16.6,16.6,0,1,1-16.6-16.6A16.623,16.623,0,0,1,861.9,118Z" fill="#e62e34"/>
    <path id="XMLID_9_" d="M846.2,107.5c-5.5,0-8.3,3.8-8.3,7a8.8,8.8,0,0,0,.2,1.7,3.438,3.438,0,0,0,2.2,2.6.419.419,0,0,0,.6-.3,2.921,2.921,0,0,0,.2-.9c.1-.3,0-.4-.2-.6a2.281,2.281,0,0,1-.6-1.2,3.4,3.4,0,0,1-.1-1,5.45,5.45,0,0,1,5.7-5.4c3.1,0,4.8,1.8,4.8,4.3a14.914,14.914,0,0,1-.2,2.1c-.5,2.3-1.8,3.9-3.5,3.9a1.762,1.762,0,0,1-1.8-2.2l.6-2.1a8.094,8.094,0,0,0,.4-1.9,1.546,1.546,0,0,0-1.6-1.7c-1.2,0-2.2,1.2-2.2,2.9a1.95,1.95,0,0,0,.1.8,2.476,2.476,0,0,0,.3.9s-1.3,5.2-1.5,6.1a11.476,11.476,0,0,0,0,4.3.192.192,0,0,0,.3.1,11.32,11.32,0,0,0,2.1-3.7c.1-.5.8-3.1.8-3.1a3.477,3.477,0,0,0,2.8,1.4c3,0,5.3-2.2,6-5.4a8.523,8.523,0,0,0,.3-2.3C853.6,110.7,850.6,107.5,846.2,107.5Z" fill="#fff"/>
  </g>
</svg>
