<svg xmlns="http://www.w3.org/2000/svg" width="33.2" height="33.2" viewBox="0 0 33.2 33.2">
  <g id="Group_38" data-name="Group 38" transform="translate(-781.6 -101.4)">
    <path id="XMLID_16_" d="M814.8,118a16.6,16.6,0,1,1-16.6-16.6A16.623,16.623,0,0,1,814.8,118Z" fill="#874d2e"/>
    <path id="Path_6" data-name="Path 6" d="M804.3,108.2h-12a3.8,3.8,0,0,0-3.8,3.8v12.1a3.8,3.8,0,0,0,3.8,3.8h12a3.8,3.8,0,0,0,3.8-3.8V112A3.8,3.8,0,0,0,804.3,108.2Zm1,2.2h.4v3.3h-3.3v-3.3Zm-9.9,5.6a3.242,3.242,0,0,1,2.8-1.4A3.5,3.5,0,0,1,801,116c.1.1.1.2.2.3a3.287,3.287,0,0,1,.4,1.7,3.543,3.543,0,0,1-3.5,3.5,3.478,3.478,0,0,1-3.5-3.5,4.711,4.711,0,0,1,.4-1.7C795.3,116.2,795.4,116.1,795.4,116Zm10.7,8a1.9,1.9,0,0,1-1.9,1.9h-12a1.9,1.9,0,0,1-1.9-1.9v-8h2.9c-.1.2-.1.4-.2.6a7.721,7.721,0,0,0-.2,1.5,5.4,5.4,0,0,0,10.8,0,7.716,7.716,0,0,0-.2-1.5c-.1-.2-.1-.4-.2-.6h2.9v8Z" fill="#fff"/>
  </g>
</svg>
